<?xml version="1.0" encoding="UTF-8" standalone="no"?>
<!-- Created with Inkscape (http://www.inkscape.org/) -->

<svg
   width="579.76685"
   height="881.79871"
   viewBox="0 0 153.39663 233.30928"
   version="1.1"
   id="svg1"
   xml:space="preserve"
   xmlns="http://www.w3.org/2000/svg"
   xmlns:svg="http://www.w3.org/2000/svg"><defs
     id="defs1"><linearGradient
       id="swatch25"><stop
         style="stop-color:#000000;stop-opacity:1;"
         offset="0"
         id="stop25" /></linearGradient><linearGradient
       id="swatch22"><stop
         style="stop-color:#7c9aa9;stop-opacity:1;"
         offset="0"
         id="stop22" /></linearGradient><linearGradient
       id="swatch21"><stop
         style="stop-color:#000000;stop-opacity:1;"
         offset="0"
         id="stop21" /></linearGradient><linearGradient
       id="swatch120"><stop
         style="stop-color:#8ec991;stop-opacity:0.99724504;"
         offset="0"
         id="stop120" /></linearGradient></defs><g
     id="g17"
     style="display:inline"
     transform="translate(2.1543316,4.0880624)"><path
       style="display:inline;opacity:1;fill:#96a995;fill-opacity:1;fill-rule:nonzero;stroke:#828e87;stroke-width:0.1;stroke-linecap:round;stroke-linejoin:round;stroke-dasharray:none;stroke-dashoffset:0;stroke-opacity:1;paint-order:normal"
       d="m 4.8787225,73.703162 8.5699275,-9.945007 5.876649,-6.498235 8.174629,-10.886867 3.710571,-6.309867 6.931454,-8.174629 8.061685,-8.15567 8.2311,-9.154003 10.057947,-9.5117892 6.55471,-0.3017207 6.498238,2.599295 6.498238,9.0975319 3.898942,7.797885 3.465727,3.898944 3.465724,4.332157 4.33216,0.433216 1.299646,-5.198591 0.86643,-3.465726 6.06502,-3.465726 6.49824,-3.898943 4.33216,-2.599295 4.33216,3.032511 2.59929,3.032511 1.73287,2.599295 0.86643,3.03251 -1.73287,3.898943 -3.03251,2.16608 2.16608,5.198589 2.16608,4.332158 v 5.631807 l -0.43321,2.599293 2.16608,1.299649 v 4.765373 4.765373 l -1.73287,3.032512 -0.43321,5.198589 3.03251,6.065022 3.03251,9.097534 0.86643,4.765373 2.5993,6.06502 2.16607,7.797886 2.16608,5.63181 1.73287,5.19858 2.59929,9.09754 v 6.06502 l 0.43322,5.19859 0.86643,10.8304 -1.73286,4.76537 -0.43322,5.63181 3.89894,4.76537 3.03251,1.73286 -3.46572,7.36467 -3.46573,6.06502 -3.89894,11.26361 -6.49824,11.69683 1.29965,3.46573 -0.86643,2.59929 -6.93146,4.33216 -2.59929,5.19859 -9.53075,14.29612 -6.93145,1.29965 -4.76538,-2.16608 -6.931451,-3.46573 -4.765374,-1.29964 -5.198591,-1.73287 -6.931454,-2.16607 -6.931451,-3.89895 -7.364669,-4.33216 -4.765376,-4.76537 1.29965,-6.49824 4.332157,-3.03251 -0.433215,-2.16608 -12.563261,-7.36467 -6.065019,-5.19858 -4.765376,-3.89895 -4.765374,-4.76537 -3.465726,-4.76538 v -2.59929 -4.76538 l -4.332158,-4.76537 -3.032512,-4.33216 -1.732862,-3.89894 -1.732864,-3.89894 -2.166079,-4.76538 -0.555679,-7.96244 -4.642911,-0.26866 -5.631805,0.43322 -5.0761268,0.0658 -2.2885425,-3.53156 -1.1113582,-4.33216 3.0325108,-5.4106 1.97779,-3.68693 0.8664315,-2.16608 -5.1985899,-4.76537 2.5345641,-5.44756 3.0972416,-3.216759 4.3620364,-2.136199 2.569417,-2.195959 L 9.4006496,89.336345 5.1985899,86.209948 6.4982372,83.610653 5.6318057,81.01136 Z"
       id="path25" /><g
       id="g21"
       transform="rotate(13.211135,56.530994,85.08849)"
       style="display:inline;fill:#789a83;fill-opacity:1;fill-rule:nonzero;stroke:#789a83;stroke-width:0.5;stroke-linecap:round;stroke-linejoin:bevel;stroke-dasharray:none;stroke-opacity:1"><path
         style="opacity:1;fill:#789a83;fill-opacity:1;fill-rule:nonzero;stroke:#606f66;stroke-width:0.1;stroke-linecap:round;stroke-linejoin:bevel;stroke-dasharray:none;stroke-opacity:1;paint-order:stroke fill markers"
         d="m 53.494204,87.249282 0.467198,1.751994 1.284796,0.350398 1.985592,-0.467198 0.817597,-1.051198 v -0.817597 l -1.051195,-0.467198 h -1.635194 z"
         id="path19" /><path
         style="opacity:1;fill:#789a83;fill-opacity:1;fill-rule:nonzero;stroke:#606f66;stroke-width:0.1;stroke-linecap:round;stroke-linejoin:bevel;stroke-dasharray:none;stroke-opacity:1;paint-order:stroke fill markers"
         d="m 60.82181,74.530966 2.088838,0.71402 1.521078,-0.185163 2.064561,1.117494 0.606667,-2.85953 -1.104173,-0.96014 -1.292918,-0.959402 -2.802161,0.170107 z"
         id="path20" /><path
         style="opacity:1;fill:#789a83;fill-opacity:1;fill-rule:nonzero;stroke:#606f66;stroke-width:0.05;stroke-linecap:round;stroke-linejoin:bevel;stroke-dasharray:none;stroke-opacity:1;paint-order:normal"
         d="m 58.787186,82.887708 1.753226,1.397371 1.550829,-0.728706 -0.899166,-1.796173 -1.460711,-0.47595 z"
         id="path21" /><path
         style="display:inline;opacity:1;fill:#7c9aa9;fill-opacity:1;fill-rule:nonzero;stroke:#65839d;stroke-width:0.05;stroke-linecap:round;stroke-linejoin:round;stroke-dasharray:none;stroke-dashoffset:0;stroke-opacity:1;paint-order:normal"
         d="m 61.491026,76.146135 -1.661919,1.359752 0.604334,1.057585 1.208667,1.510837 1.66192,-0.302168 1.057587,-0.906502 -0.75542,-1.359752 -0.45325,-0.755417 z"
         id="path24"
         transform="rotate(-13.211135,56.530998,85.088487)" /><path
         style="display:inline;opacity:1;fill:#c8beb7;fill-opacity:1;fill-rule:nonzero;stroke:#606f66;stroke-width:0.05;stroke-dasharray:none;stroke-opacity:1;paint-order:normal"
         d="m 52.63956,80.771996 2.3202,-0.870074 h 1.232609 l 0.797568,1.015087 1.450126,0.580051 -0.145013,1.015088 -0.07251,0.725064 -1.450125,0.290023 -1.087594,0.362532 -0.145013,0.725064 -0.217519,0.652555 -0.870074,0.580052 -1.667645,0.217519 -1.812658,-0.145013 -1.087594,-0.725064 0.145013,-0.942581 0.797568,-1.1601 1.305113,-1.740151 z"
         id="path23"
         transform="rotate(-13.211135,56.530998,85.088487)" /></g><g
       id="g27"
       style="display:inline;stroke:#b9acaa;stroke-opacity:1"><g
         id="g84"
         style="display:inline;stroke:#c8beb7;stroke-width:0.1;stroke-linecap:round;stroke-dasharray:none;stroke-dashoffset:0"><path
           style="color:#000000;fill:#c8beb7;fill-opacity:1;stroke:#606f66;stroke-width:0.1;stroke-linejoin:round;stroke-miterlimit:1.1;stroke-dasharray:none;stroke-opacity:1;paint-order:stroke fill markers"
           d="m 5.4160156,72.974609 c -0.1994413,-0.149312 -0.4822428,-0.10816 -0.6308594,0.0918 -0.1493134,0.199441 -0.1081626,0.482242 0.091797,0.63086 l 17.0390628,12.701171 6.501953,5.263672 c 0.02535,0.0205 0.05286,0.03818 0.08203,0.05273 l 4.337891,2.167968 c 0.02501,0.01283 0.05117,0.0233 0.07813,0.03125 l 6.509765,1.859375 c 0.03061,0.0085 0.06204,0.01374 0.09375,0.01563 l 4.958985,0.310547 c 0.122941,0.0077 0.243652,-0.03539 0.333984,-0.11914 l 4.029297,-3.71875 c 0.03619,-0.03385 0.06655,-0.07345 0.08984,-0.117188 l 3.094307,-6.038035 -0.753064,-0.108594 -3.097103,5.654443 -3.832031,3.537109 -4.71875,-0.294922 -6.421875,-1.833984 -4.257813,-2.128906 -6.46875,-5.238282 c -0.0051,-0.004 -0.01034,-0.0079 -0.01563,-0.01172 z"
           id="path18" /><path
           style="color:#000000;display:inline;fill:#c8beb7;fill-opacity:1;stroke:#606f66;stroke-width:0.1;stroke-linejoin:round;stroke-miterlimit:1.1;stroke-dasharray:none;stroke-opacity:1;paint-order:stroke fill markers"
           d="m 71.650391,-3.7851563 a 1,1 0 0 0 -1.41211,0.082031 L 65.828125,1.2597656 57.855469,9.78125 53.898437,13.349609 a 1.0001,1.0001 0 0 0 -0.08398,0.08594 l -7.269531,8.351562 -6.896485,6.671875 a 1.0001,1.0001 0 0 0 -0.03516,0.03711 l -6.822265,7.308593 a 1.0001,1.0001 0 0 0 -0.117188,0.154297 l -7.583984,12.17578 -3.097657,4.976562 -17.1816401,18.554688 -6.6074219,6.332031 a 1,1 0 0 0 -0.029297,1.414062 1,1 0 0 0 1.41406252,0.0293 L 6.2167969,73.089844 a 1.0001,1.0001 0 0 0 0.041016,-0.04297 L 23.523437,54.400391 a 1.0001,1.0001 0 0 0 0.115235,-0.152344 l 3.15039,-5.054688 7.53125,-12.09375 6.738282,-7.220703 6.908203,-6.683594 a 1.0001,1.0001 0 0 0 0.05859,-0.0625 l 7.257812,-8.33789 3.943359,-3.556641 a 1.0001,1.0001 0 0 0 0.06055,-0.05859 l 8.009766,-8.5625005 a 1.0001,1.0001 0 0 0 0.01758,-0.019531 l 4.419922,-4.9707032 a 1,1 0 0 0 -0.08398,-1.4121094 z"
           id="path17" /><path
           style="display:inline;opacity:1;fill:#c8beb7;fill-opacity:1;fill-rule:nonzero;stroke:none;stroke-width:0.1;stroke-linecap:round;stroke-linejoin:round;stroke-dasharray:none;stroke-dashoffset:0;stroke-opacity:1;paint-order:normal"
           d="m 51.248597,86.039735 0.215774,-0.391647 0.723092,0.212135 -0.309566,0.468962 z"
           id="path85" /></g><g
         id="g83"
         style="display:none"><path
           style="display:inline;opacity:1;fill:none;fill-opacity:1;stroke:#000000;stroke-width:1.26;stroke-linecap:butt;stroke-linejoin:round;stroke-miterlimit:1.1;stroke-dasharray:2.52, 1.26;stroke-dashoffset:0;stroke-opacity:1;paint-order:stroke fill markers"
           d="m 70.986109,-3.0383159 -4.419367,4.9717897 -8.010107,8.5625272 -3.987727,3.596163 -7.297818,8.384094 -6.926439,6.702292 -6.821729,7.309368 -7.583517,12.17592 -3.149191,5.056268 -17.266003,18.647057 -6.6290532,6.352841"
           id="path82" /><path
           style="opacity:1;fill:none;fill-opacity:1;stroke:#000000;stroke-width:1.26;stroke-linecap:butt;stroke-linejoin:round;stroke-miterlimit:1.1;stroke-dasharray:2.52, 1.26;stroke-dashoffset:0;stroke-opacity:1;paint-order:stroke fill markers"
           d="m 5.1468647,73.335802 17.0458453,12.706901 6.508412,5.268717 4.338943,2.169471 6.508415,1.859545 4.958789,0.309925 4.029019,-3.719092 2.919437,-5.401691"
           id="path83" /></g></g><path
       style="display:inline;fill:#7c9aa9;fill-opacity:1;stroke:#65839d;stroke-width:0.0499999;stroke-linecap:round;stroke-linejoin:bevel;stroke-dasharray:none;stroke-opacity:1"
       d="m 99.639099,93.084408 -1.010569,0.673709 -1.291277,-0.05614 -1.122852,-0.561425 -0.280713,-0.505282 -0.392996,-0.898282 -0.280715,-0.84214 0.168429,-1.066707 0.22457,-1.235136 0.336854,-0.785995 0.729853,-0.729853 0.495898,-0.898282 0.721952,-1.029993 0.859426,-0.710425 c 0,0 0.601184,-0.534791 1.260971,-0.954424 0.39662,-0.686968 0.42331,-1.51585 0.42331,-1.51585 l 0.16842,-1.403562 0.50529,-1.235139 0.33685,-0.898279 0.61757,-0.673711 0.61757,-0.729853 1.29128,-0.22457 1.23513,0.168428 1.62814,0.617567 0.22457,0.673711 -0.33686,1.684277 -0.50528,1.459706 -0.56143,1.122852 -0.50528,0.898279 -0.393,1.06671 -0.67371,1.010565 -0.89828,1.628135 -0.50528,1.066707 -0.56143,1.122852 -0.44914,1.291278 -0.61757,0.84214 -0.50528,0.842137 z"
       id="path1" /><path
       style="display:inline;fill:#7c9aa9;fill-opacity:1;stroke:#65839d;stroke-width:0.0499999;stroke-linecap:round;stroke-linejoin:bevel;stroke-dasharray:none;stroke-opacity:1"
       d="m 70.811173,34.110176 1.994061,-1.994064 1.395847,-0.59822 0.897329,-1.495547 0.897329,-2.392879 1.694953,-1.694952 0.897329,-0.299111 1.694955,0.199408 1.595249,0.797623 1.395847,1.595253 0.797623,1.495546 0.598221,1.296144 -0.498518,0.997032 -0.997032,1.495547 -0.897326,0.997032 -1.694955,0.299108 -1.595253,0.697924 -2.293172,1.395843 -0.299109,1.196438 -0.697923,0.59822 -1.59525,0.89733 -1.595252,0.0997 -2.392876,0.398812 -2.691987,-0.0997 -1.296141,-0.997032 h -1.59525 l -1.495549,0.897329 -0.997032,0.697924 -0.299109,1.196437 -0.697923,0.997032 -0.997032,0.997032 -0.897329,0.89733 -1.894359,-0.0997 -1.19644,-0.199409 -0.897327,0.09971 -1.495549,0.797623 -1.096735,1.096735 -0.59822,1.096735 -0.697921,1.395846 -0.199406,0.997032 0.498515,1.59525 0.0997,1.395846 -0.199406,1.196438 -1.196438,0.299109 -1.296141,-0.299109 -0.398814,-1.096735 -1.196438,-0.797626 -1.296141,0.398812 -0.997032,1.096735 -0.398814,0.997032 -1.395844,0.398814 -1.196438,-0.697923 -0.0997,-1.595249 0.997032,-1.894362 1.196438,-0.797626 1.395844,0.0997 1.794658,0.299109 1.495547,-0.598218 0.697923,-1.495549 0.797626,-1.894361 1.694955,-1.894358 1.894359,-0.897329 0.498517,-0.89733 -0.797626,-0.498517 -0.59822,-1.894358 0.897329,-0.697924 2.392878,0.697924 1.296141,0.498514 1.096735,-0.498514 0.59822,-0.897329 -0.09971,-1.196438 0.199408,-1.096735 1.196438,0.997032 H 62.4361 l 1.296141,-0.797626 0.997032,-0.299112 1.296141,-0.0997 1.794658,-0.199406 0.997032,-0.199405 0.199406,-1.196438 0.498515,-0.697924 z"
       id="path14" /><path
       style="display:none;opacity:1;fill:#7c9aa9;fill-opacity:1;fill-rule:nonzero;stroke:#65839d;stroke-width:0.05;stroke-linecap:round;stroke-linejoin:round;stroke-dasharray:none;stroke-dashoffset:0;stroke-opacity:1;paint-order:normal"
       d="m 77.397845,39.259777 1.121706,-1.869514 1.869514,-1.121709 2.617319,-1.121707 0.373901,-2.056466 -2.243415,-2.243415 -2.243415,-1.308658 -2.430368,-1.869514 -3.552076,0.186952 -2.617316,1.308658 -3.552076,1.495613 -2.731994,1.664491 -0.633131,1.70063 0.934757,2.243416 0.186952,0.934757 -0.373901,1.682562 -1.682562,0.373904 -2.056466,1.49561 -1.49561,0.747805 -0.373901,1.121709 -0.626434,1.275496 -2.862854,2.699629 -2.151478,1.172283 -2.323279,1.265893 -1.774558,2.378467 -1.858902,1.323606 -1.278501,1.472663 1.485,0.364262 2.252999,-1.412927 3.462984,-2.331561 4.224774,-3.913168 0.943475,-0.858588 4.245799,-1.566544 1.49561,-2.056463 1.49561,-1.121709 1.308659,-1.308658 1.682562,0.560853 1.49561,0.373904 2.804271,0.373901 1.869514,-0.934757 z"
       id="path22" /><path
       style="opacity:1;fill:#c8beb7;fill-opacity:1;fill-rule:nonzero;stroke:#606f66;stroke-width:0.05;stroke-linecap:butt;stroke-linejoin:bevel;stroke-dasharray:none;stroke-dashoffset:0;stroke-opacity:1;paint-order:normal"
       d="m 85.926214,82.905519 1.776838,-0.155423 0.747781,-1.273427 0.103615,-1.917594 -0.79959,-0.399793 -1.599176,0.199895 -1.199382,1.199383 -0.399796,1.39928 z"
       id="path70" /><g
       id="g87"
       style="display:inline"><path
         style="opacity:1;fill:#496e47;fill-opacity:1;fill-rule:nonzero;stroke:#496e47;stroke-width:0.0499999;stroke-linecap:butt;stroke-linejoin:round;stroke-dasharray:none;stroke-dashoffset:0;stroke-opacity:1;paint-order:normal"
         d="m 62.531432,63.916997 0.01162,0.343451 0.14609,0.01162 -0.01248,-0.364065 0.441526,-0.01162 -0.519914,-2.1145 -0.528625,2.1145 z"
         id="path87" /><path
         style="opacity:1;fill:#496e47;fill-opacity:1;fill-rule:nonzero;stroke:#496e47;stroke-width:0.0499999;stroke-linecap:butt;stroke-linejoin:round;stroke-dasharray:none;stroke-dashoffset:0;stroke-opacity:1;paint-order:normal"
         d="m 63.925947,64.487185 0.01162,0.343451 0.14609,0.01162 -0.01248,-0.364065 0.441526,-0.01162 -0.519914,-2.1145 -0.528625,2.1145 z"
         id="path88" /><path
         style="opacity:1;fill:#496e47;fill-opacity:1;fill-rule:nonzero;stroke:#496e47;stroke-width:0.0499999;stroke-linecap:butt;stroke-linejoin:round;stroke-dasharray:none;stroke-dashoffset:0;stroke-opacity:1;paint-order:normal"
         d="m 65.293424,63.856042 0.01162,0.343451 0.14609,0.01162 -0.01248,-0.364065 0.441526,-0.01162 -0.519914,-2.1145 -0.528625,2.1145 z"
         id="path89" /><path
         style="opacity:1;fill:#496e47;fill-opacity:1;fill-rule:nonzero;stroke:#496e47;stroke-width:0.0499999;stroke-linecap:butt;stroke-linejoin:round;stroke-dasharray:none;stroke-dashoffset:0;stroke-opacity:1;paint-order:normal"
         d="m 64.662281,61.682104 0.01162,0.343451 0.14609,0.01162 -0.01248,-0.364065 0.441526,-0.01162 -0.519914,-2.1145 -0.528625,2.1145 z"
         id="path90" /><path
         style="opacity:1;fill:#496e47;fill-opacity:1;fill-rule:nonzero;stroke:#496e47;stroke-width:0.0499999;stroke-linecap:butt;stroke-linejoin:round;stroke-dasharray:none;stroke-dashoffset:0;stroke-opacity:1;paint-order:normal"
         d="m 63.129646,61.707008 0.01162,0.343451 0.14609,0.01162 -0.01248,-0.364065 0.441526,-0.01162 -0.519914,-2.1145 -0.528625,2.1145 z"
         id="path91" /></g><g
       id="g98"
       transform="translate(40.511997,-34.46543)"
       style="display:inline"><path
         style="opacity:1;fill:#496e47;fill-opacity:1;fill-rule:nonzero;stroke:#496e47;stroke-width:0.0499999;stroke-linecap:butt;stroke-linejoin:round;stroke-dasharray:none;stroke-dashoffset:0;stroke-opacity:1;paint-order:normal"
         d="m 62.531432,63.916997 0.01162,0.343451 0.14609,0.01162 -0.01248,-0.364065 0.441526,-0.01162 -0.519914,-2.1145 -0.528625,2.1145 z"
         id="path94" /><path
         style="opacity:1;fill:#496e47;fill-opacity:1;fill-rule:nonzero;stroke:#496e47;stroke-width:0.0499999;stroke-linecap:butt;stroke-linejoin:round;stroke-dasharray:none;stroke-dashoffset:0;stroke-opacity:1;paint-order:normal"
         d="m 63.925947,64.487185 0.01162,0.343451 0.14609,0.01162 -0.01248,-0.364065 0.441526,-0.01162 -0.519914,-2.1145 -0.528625,2.1145 z"
         id="path95" /><path
         style="opacity:1;fill:#496e47;fill-opacity:1;fill-rule:nonzero;stroke:#496e47;stroke-width:0.0499999;stroke-linecap:butt;stroke-linejoin:round;stroke-dasharray:none;stroke-dashoffset:0;stroke-opacity:1;paint-order:normal"
         d="m 65.293424,63.856042 0.01162,0.343451 0.14609,0.01162 -0.01248,-0.364065 0.441526,-0.01162 -0.519914,-2.1145 -0.528625,2.1145 z"
         id="path96" /><path
         style="opacity:1;fill:#496e47;fill-opacity:1;fill-rule:nonzero;stroke:#496e47;stroke-width:0.0499999;stroke-linecap:butt;stroke-linejoin:round;stroke-dasharray:none;stroke-dashoffset:0;stroke-opacity:1;paint-order:normal"
         d="m 64.662281,61.682104 0.01162,0.343451 0.14609,0.01162 -0.01248,-0.364065 0.441526,-0.01162 -0.519914,-2.1145 -0.528625,2.1145 z"
         id="path97" /><path
         style="opacity:1;fill:#496e47;fill-opacity:1;fill-rule:nonzero;stroke:#496e47;stroke-width:0.0499999;stroke-linecap:butt;stroke-linejoin:round;stroke-dasharray:none;stroke-dashoffset:0;stroke-opacity:1;paint-order:normal"
         d="m 63.129646,61.707008 0.01162,0.343451 0.14609,0.01162 -0.01248,-0.364065 0.441526,-0.01162 -0.519914,-2.1145 -0.528625,2.1145 z"
         id="path98" /><path
         style="opacity:1;fill:#496e47;fill-opacity:1;fill-rule:nonzero;stroke:#496e47;stroke-width:0.0499999;stroke-linecap:butt;stroke-linejoin:round;stroke-dasharray:none;stroke-dashoffset:0;stroke-opacity:1;paint-order:normal"
         d="m 66.818539,58.704615 0.01162,0.343451 0.14609,0.01162 -0.01248,-0.364065 0.441526,-0.01162 -0.519914,-2.1145 -0.528625,2.1145 z"
         id="path103" /><path
         style="opacity:1;fill:#496e47;fill-opacity:1;fill-rule:nonzero;stroke:#496e47;stroke-width:0.0499999;stroke-linecap:butt;stroke-linejoin:round;stroke-dasharray:none;stroke-dashoffset:0;stroke-opacity:1;paint-order:normal"
         d="m 68.854144,57.717655 0.01162,0.343451 0.14609,0.01162 -0.01248,-0.364065 0.441526,-0.01162 -0.519914,-2.1145 -0.528625,2.1145 z"
         id="path104" /><path
         style="opacity:1;fill:#496e47;fill-opacity:1;fill-rule:nonzero;stroke:#496e47;stroke-width:0.0499999;stroke-linecap:butt;stroke-linejoin:round;stroke-dasharray:none;stroke-dashoffset:0;stroke-opacity:1;paint-order:normal"
         d="m 68.453192,60.894432 0.01162,0.343451 0.14609,0.01162 -0.01248,-0.364065 0.441526,-0.01162 -0.519914,-2.1145 -0.528625,2.1145 z"
         id="path107" /><path
         style="opacity:1;fill:#496e47;fill-opacity:1;fill-rule:nonzero;stroke:#496e47;stroke-width:0.0499999;stroke-linecap:butt;stroke-linejoin:round;stroke-dasharray:none;stroke-dashoffset:0;stroke-opacity:1;paint-order:normal"
         d="m 66.94191,61.881392 0.01162,0.343451 0.14609,0.01162 -0.01248,-0.364065 0.441526,-0.01162 -0.519914,-2.1145 -0.528625,2.1145 z"
         id="path108" /><path
         style="opacity:1;fill:#496e47;fill-opacity:1;fill-rule:nonzero;stroke:#496e47;stroke-width:0.0499999;stroke-linecap:butt;stroke-linejoin:round;stroke-dasharray:none;stroke-dashoffset:0;stroke-opacity:1;paint-order:normal"
         d="m 68.453192,63.947839 0.01162,0.343451 0.14609,0.01162 -0.01248,-0.364065 0.441526,-0.01162 -0.519914,-2.1145 -0.528625,2.1145 z"
         id="path111" /><path
         style="opacity:1;fill:#496e47;fill-opacity:1;fill-rule:nonzero;stroke:#496e47;stroke-width:0.0499999;stroke-linecap:butt;stroke-linejoin:round;stroke-dasharray:none;stroke-dashoffset:0;stroke-opacity:1;paint-order:normal"
         d="m 67.157807,64.873114 0.01162,0.343451 0.14609,0.01162 -0.01248,-0.364065 0.441526,-0.01162 -0.519914,-2.1145 -0.528625,2.1145 z"
         id="path112" /><path
         style="opacity:1;fill:#496e47;fill-opacity:1;fill-rule:nonzero;stroke:#496e47;stroke-width:0.0499999;stroke-linecap:butt;stroke-linejoin:round;stroke-dasharray:none;stroke-dashoffset:0;stroke-opacity:1;paint-order:normal"
         d="m 65.153045,59.228937 0.01162,0.343451 0.14609,0.01162 -0.01248,-0.364065 0.441526,-0.01162 -0.519914,-2.1145 -0.528625,2.1145 z"
         id="path113" /><path
         style="opacity:1;fill:#496e47;fill-opacity:1;fill-rule:nonzero;stroke:#496e47;stroke-width:0.0499999;stroke-linecap:butt;stroke-linejoin:round;stroke-dasharray:none;stroke-dashoffset:0;stroke-opacity:1;paint-order:normal"
         d="m 70.290073,63.75192 0.01162,0.343451 0.14609,0.01162 -0.01248,-0.364065 0.441526,-0.01162 -0.519914,-2.1145 -0.528625,2.1145 z"
         id="path114" /><path
         style="opacity:1;fill:#496e47;fill-opacity:1;fill-rule:nonzero;stroke:#496e47;stroke-width:0.0499999;stroke-linecap:butt;stroke-linejoin:round;stroke-dasharray:none;stroke-dashoffset:0;stroke-opacity:1;paint-order:normal"
         d="m 71.684588,64.322108 0.01162,0.343451 0.14609,0.01162 -0.01248,-0.364065 0.441526,-0.01162 -0.519914,-2.1145 -0.528625,2.1145 z"
         id="path115" /><path
         style="opacity:1;fill:#496e47;fill-opacity:1;fill-rule:nonzero;stroke:#496e47;stroke-width:0.0499999;stroke-linecap:butt;stroke-linejoin:round;stroke-dasharray:none;stroke-dashoffset:0;stroke-opacity:1;paint-order:normal"
         d="m 73.052065,63.690965 0.01162,0.343451 0.14609,0.01162 -0.01248,-0.364065 0.441526,-0.01162 -0.519914,-2.1145 -0.528625,2.1145 z"
         id="path116" /><path
         style="opacity:1;fill:#496e47;fill-opacity:1;fill-rule:nonzero;stroke:#496e47;stroke-width:0.0499999;stroke-linecap:butt;stroke-linejoin:round;stroke-dasharray:none;stroke-dashoffset:0;stroke-opacity:1;paint-order:normal"
         d="m 72.420922,61.517027 0.01162,0.343451 0.14609,0.01162 -0.01248,-0.364065 0.441526,-0.01162 -0.519914,-2.1145 -0.528625,2.1145 z"
         id="path117" /><path
         style="opacity:1;fill:#496e47;fill-opacity:1;fill-rule:nonzero;stroke:#496e47;stroke-width:0.0499999;stroke-linecap:butt;stroke-linejoin:round;stroke-dasharray:none;stroke-dashoffset:0;stroke-opacity:1;paint-order:normal"
         d="m 70.318374,61.256974 0.01162,0.343451 0.14609,0.01162 -0.01248,-0.364065 0.441526,-0.01162 -0.519914,-2.1145 -0.528625,2.1145 z"
         id="path118" /><path
         style="opacity:1;fill:#496e47;fill-opacity:1;fill-rule:nonzero;stroke:#496e47;stroke-width:0.0499999;stroke-linecap:butt;stroke-linejoin:round;stroke-dasharray:none;stroke-dashoffset:0;stroke-opacity:1;paint-order:normal"
         d="m 75.004615,58.39706 0.01162,0.343451 0.14609,0.01162 -0.01248,-0.364065 0.441526,-0.01162 -0.519914,-2.1145 -0.528625,2.1145 z"
         id="path119" /><path
         style="opacity:1;fill:#496e47;fill-opacity:1;fill-rule:nonzero;stroke:#496e47;stroke-width:0.0499999;stroke-linecap:butt;stroke-linejoin:round;stroke-dasharray:none;stroke-dashoffset:0;stroke-opacity:1;paint-order:normal"
         d="m 76.612785,57.552578 0.01162,0.343451 0.14609,0.01162 -0.01248,-0.364065 0.441526,-0.01162 -0.519914,-2.1145 -0.528625,2.1145 z"
         id="path120" /><path
         style="opacity:1;fill:#496e47;fill-opacity:1;fill-rule:nonzero;stroke:#496e47;stroke-width:0.0499999;stroke-linecap:butt;stroke-linejoin:round;stroke-dasharray:none;stroke-dashoffset:0;stroke-opacity:1;paint-order:normal"
         d="m 76.211833,60.729355 0.01162,0.343451 0.14609,0.01162 -0.01248,-0.364065 0.441526,-0.01162 -0.519914,-2.1145 -0.528625,2.1145 z"
         id="path121" /><path
         style="opacity:1;fill:#496e47;fill-opacity:1;fill-rule:nonzero;stroke:#496e47;stroke-width:0.0499999;stroke-linecap:butt;stroke-linejoin:round;stroke-dasharray:none;stroke-dashoffset:0;stroke-opacity:1;paint-order:normal"
         d="m 74.700551,61.716315 0.01162,0.343451 0.14609,0.01162 -0.01248,-0.364065 0.441526,-0.01162 -0.519914,-2.1145 -0.528625,2.1145 z"
         id="path122" /><path
         style="opacity:1;fill:#496e47;fill-opacity:1;fill-rule:nonzero;stroke:#496e47;stroke-width:0.0499999;stroke-linecap:butt;stroke-linejoin:round;stroke-dasharray:none;stroke-dashoffset:0;stroke-opacity:1;paint-order:normal"
         d="m 76.211833,63.782762 0.01162,0.343451 0.14609,0.01162 -0.01248,-0.364065 0.441526,-0.01162 -0.519914,-2.1145 -0.528625,2.1145 z"
         id="path123" /><path
         style="opacity:1;fill:#496e47;fill-opacity:1;fill-rule:nonzero;stroke:#496e47;stroke-width:0.0499999;stroke-linecap:butt;stroke-linejoin:round;stroke-dasharray:none;stroke-dashoffset:0;stroke-opacity:1;paint-order:normal"
         d="m 74.916448,64.708037 0.01162,0.343451 0.14609,0.01162 -0.01248,-0.364065 0.441526,-0.01162 -0.519914,-2.1145 -0.528625,2.1145 z"
         id="path124" /><path
         style="opacity:1;fill:#496e47;fill-opacity:1;fill-rule:nonzero;stroke:#496e47;stroke-width:0.0499999;stroke-linecap:butt;stroke-linejoin:round;stroke-dasharray:none;stroke-dashoffset:0;stroke-opacity:1;paint-order:normal"
         d="m 72.911686,59.06386 0.01162,0.343451 0.14609,0.01162 -0.01248,-0.364065 0.441526,-0.01162 -0.519914,-2.1145 -0.528625,2.1145 z"
         id="path125" /><path
         style="opacity:1;fill:#496e47;fill-opacity:1;fill-rule:nonzero;stroke:#496e47;stroke-width:0.0499999;stroke-linecap:butt;stroke-linejoin:round;stroke-dasharray:none;stroke-dashoffset:0;stroke-opacity:1;paint-order:normal"
         d="m 78.048714,63.806946 0.01162,0.343451 0.14609,0.01162 -0.01248,-0.364065 0.441526,-0.01162 -0.519914,-2.1145 -0.528625,2.1145 z"
         id="path131" /><path
         style="opacity:1;fill:#496e47;fill-opacity:1;fill-rule:nonzero;stroke:#496e47;stroke-width:0.0499999;stroke-linecap:butt;stroke-linejoin:round;stroke-dasharray:none;stroke-dashoffset:0;stroke-opacity:1;paint-order:normal"
         d="m 79.443229,64.377134 0.01162,0.343451 0.14609,0.01162 -0.01248,-0.364065 0.441526,-0.01162 -0.519914,-2.1145 -0.528625,2.1145 z"
         id="path132" /><path
         style="opacity:1;fill:#496e47;fill-opacity:1;fill-rule:nonzero;stroke:#496e47;stroke-width:0.0499999;stroke-linecap:butt;stroke-linejoin:round;stroke-dasharray:none;stroke-dashoffset:0;stroke-opacity:1;paint-order:normal"
         d="m 80.810706,63.745991 0.01162,0.343451 0.14609,0.01162 -0.01248,-0.364065 0.441526,-0.01162 -0.519914,-2.1145 -0.528625,2.1145 z"
         id="path133" /><path
         style="opacity:1;fill:#496e47;fill-opacity:1;fill-rule:nonzero;stroke:#496e47;stroke-width:0.0499999;stroke-linecap:butt;stroke-linejoin:round;stroke-dasharray:none;stroke-dashoffset:0;stroke-opacity:1;paint-order:normal"
         d="m 80.179563,61.572053 0.01162,0.343451 0.14609,0.01162 -0.01248,-0.364065 0.441526,-0.01162 -0.519914,-2.1145 -0.528625,2.1145 z"
         id="path134" /><path
         style="opacity:1;fill:#496e47;fill-opacity:1;fill-rule:nonzero;stroke:#496e47;stroke-width:0.0499999;stroke-linecap:butt;stroke-linejoin:round;stroke-dasharray:none;stroke-dashoffset:0;stroke-opacity:1;paint-order:normal"
         d="m 78.646928,61.596957 0.01162,0.343451 0.14609,0.01162 -0.01248,-0.364065 0.441526,-0.01162 -0.519914,-2.1145 -0.528625,2.1145 z"
         id="path135" /><path
         style="opacity:1;fill:#496e47;fill-opacity:1;fill-rule:nonzero;stroke:#496e47;stroke-width:0.0499999;stroke-linecap:butt;stroke-linejoin:round;stroke-dasharray:none;stroke-dashoffset:0;stroke-opacity:1;paint-order:normal"
         d="m 82.335821,58.594564 0.01162,0.343451 0.14609,0.01162 -0.01248,-0.364065 0.441526,-0.01162 -0.519914,-2.1145 -0.528625,2.1145 z"
         id="path136" /><path
         style="opacity:1;fill:#496e47;fill-opacity:1;fill-rule:nonzero;stroke:#496e47;stroke-width:0.0499999;stroke-linecap:butt;stroke-linejoin:round;stroke-dasharray:none;stroke-dashoffset:0;stroke-opacity:1;paint-order:normal"
         d="m 84.371426,57.607604 0.01162,0.343451 0.14609,0.01162 -0.01248,-0.364065 0.441526,-0.01162 -0.519914,-2.1145 -0.528625,2.1145 z"
         id="path137" /><path
         style="opacity:1;fill:#496e47;fill-opacity:1;fill-rule:nonzero;stroke:#496e47;stroke-width:0.0499999;stroke-linecap:butt;stroke-linejoin:round;stroke-dasharray:none;stroke-dashoffset:0;stroke-opacity:1;paint-order:normal"
         d="m 83.970474,60.784381 0.01162,0.343451 0.14609,0.01162 -0.01248,-0.364065 0.441526,-0.01162 -0.519914,-2.1145 -0.528625,2.1145 z"
         id="path138" /><path
         style="opacity:1;fill:#496e47;fill-opacity:1;fill-rule:nonzero;stroke:#496e47;stroke-width:0.0499999;stroke-linecap:butt;stroke-linejoin:round;stroke-dasharray:none;stroke-dashoffset:0;stroke-opacity:1;paint-order:normal"
         d="m 82.459192,61.771341 0.01162,0.343451 0.14609,0.01162 -0.01248,-0.364065 0.441526,-0.01162 -0.519914,-2.1145 -0.528625,2.1145 z"
         id="path139" /><path
         style="opacity:1;fill:#496e47;fill-opacity:1;fill-rule:nonzero;stroke:#496e47;stroke-width:0.0499999;stroke-linecap:butt;stroke-linejoin:round;stroke-dasharray:none;stroke-dashoffset:0;stroke-opacity:1;paint-order:normal"
         d="m 83.970474,63.837788 0.01162,0.343451 0.14609,0.01162 -0.01248,-0.364065 0.441526,-0.01162 -0.519914,-2.1145 -0.528625,2.1145 z"
         id="path140" /><path
         style="opacity:1;fill:#496e47;fill-opacity:1;fill-rule:nonzero;stroke:#496e47;stroke-width:0.0499999;stroke-linecap:butt;stroke-linejoin:round;stroke-dasharray:none;stroke-dashoffset:0;stroke-opacity:1;paint-order:normal"
         d="m 82.675089,64.763063 0.01162,0.343451 0.14609,0.01162 -0.01248,-0.364065 0.441526,-0.01162 -0.519914,-2.1145 -0.528625,2.1145 z"
         id="path141" /><path
         style="opacity:1;fill:#496e47;fill-opacity:1;fill-rule:nonzero;stroke:#496e47;stroke-width:0.0499999;stroke-linecap:butt;stroke-linejoin:round;stroke-dasharray:none;stroke-dashoffset:0;stroke-opacity:1;paint-order:normal"
         d="m 80.670327,59.118886 0.01162,0.343451 0.14609,0.01162 -0.01248,-0.364065 0.441526,-0.01162 -0.519914,-2.1145 -0.528625,2.1145 z"
         id="path142" /><path
         style="opacity:1;fill:#496e47;fill-opacity:1;fill-rule:nonzero;stroke:#496e47;stroke-width:0.0499999;stroke-linecap:butt;stroke-linejoin:round;stroke-dasharray:none;stroke-dashoffset:0;stroke-opacity:1;paint-order:normal"
         d="m 78.834635,58.840751 0.01162,0.343451 0.14609,0.01162 -0.01248,-0.364065 0.441526,-0.01162 -0.519914,-2.1145 -0.528625,2.1145 z"
         id="path143" /><path
         style="opacity:1;fill:#496e47;fill-opacity:1;fill-rule:nonzero;stroke:#496e47;stroke-width:0.0499999;stroke-linecap:butt;stroke-linejoin:round;stroke-dasharray:none;stroke-dashoffset:0;stroke-opacity:1;paint-order:normal"
         d="m 71.102476,58.562616 0.01162,0.343451 0.14609,0.01162 -0.01248,-0.364065 0.441526,-0.01162 -0.519914,-2.1145 -0.528625,2.1145 z"
         id="path144" /><path
         style="opacity:1;fill:#496e47;fill-opacity:1;fill-rule:nonzero;stroke:#496e47;stroke-width:0.0499999;stroke-linecap:butt;stroke-linejoin:round;stroke-dasharray:none;stroke-dashoffset:0;stroke-opacity:1;paint-order:normal"
         d="m 71.324984,55.503129 0.01162,0.343451 0.14609,0.01162 -0.01248,-0.364065 0.441526,-0.01162 -0.519914,-2.1145 -0.528625,2.1145 z"
         id="path145" /><path
         style="opacity:1;fill:#496e47;fill-opacity:1;fill-rule:nonzero;stroke:#496e47;stroke-width:0.0499999;stroke-linecap:butt;stroke-linejoin:round;stroke-dasharray:none;stroke-dashoffset:0;stroke-opacity:1;paint-order:normal"
         d="m 73.383185,55.948145 0.01162,0.343451 0.14609,0.01162 -0.01248,-0.364065 0.441526,-0.01162 -0.519914,-2.1145 -0.528625,2.1145 z"
         id="path146" /><path
         style="opacity:1;fill:#496e47;fill-opacity:1;fill-rule:nonzero;stroke:#496e47;stroke-width:0.0499999;stroke-linecap:butt;stroke-linejoin:round;stroke-dasharray:none;stroke-dashoffset:0;stroke-opacity:1;paint-order:normal"
         d="m 74.773861,53.611809 0.01162,0.343451 0.14609,0.01162 -0.01248,-0.364065 0.441526,-0.01162 -0.519914,-2.1145 -0.528625,2.1145 z"
         id="path147" /><path
         style="opacity:1;fill:#496e47;fill-opacity:1;fill-rule:nonzero;stroke:#496e47;stroke-width:0.0499999;stroke-linecap:butt;stroke-linejoin:round;stroke-dasharray:none;stroke-dashoffset:0;stroke-opacity:1;paint-order:normal"
         d="m 76.943316,54.390588 0.01162,0.343451 0.14609,0.01162 -0.01248,-0.364065 0.441526,-0.01162 -0.519914,-2.1145 -0.528625,2.1145 z"
         id="path148" /><path
         style="opacity:1;fill:#496e47;fill-opacity:1;fill-rule:nonzero;stroke:#496e47;stroke-width:0.0499999;stroke-linecap:butt;stroke-linejoin:round;stroke-dasharray:none;stroke-dashoffset:0;stroke-opacity:1;paint-order:normal"
         d="m 78.389619,52.054252 0.01162,0.343451 0.14609,0.01162 -0.01248,-0.364065 0.441526,-0.01162 -0.519914,-2.1145 -0.528625,2.1145 z"
         id="path149" /><path
         style="opacity:1;fill:#496e47;fill-opacity:1;fill-rule:nonzero;stroke:#496e47;stroke-width:0.0499999;stroke-linecap:butt;stroke-linejoin:round;stroke-dasharray:none;stroke-dashoffset:0;stroke-opacity:1;paint-order:normal"
         d="m 79.446533,55.169366 0.01162,0.343451 0.14609,0.01162 -0.01248,-0.364065 0.441526,-0.01162 -0.519914,-2.1145 -0.528625,2.1145 z"
         id="path150" /><path
         style="opacity:1;fill:#496e47;fill-opacity:1;fill-rule:nonzero;stroke:#496e47;stroke-width:0.0499999;stroke-linecap:butt;stroke-linejoin:round;stroke-dasharray:none;stroke-dashoffset:0;stroke-opacity:1;paint-order:normal"
         d="m 81.560361,55.169366 0.01162,0.343451 0.14609,0.01162 -0.01248,-0.364065 0.441526,-0.01162 -0.519914,-2.1145 -0.528625,2.1145 z"
         id="path151" /><path
         style="opacity:1;fill:#496e47;fill-opacity:1;fill-rule:nonzero;stroke:#496e47;stroke-width:0.0499999;stroke-linecap:butt;stroke-linejoin:round;stroke-dasharray:none;stroke-dashoffset:0;stroke-opacity:1;paint-order:normal"
         d="m 78.278365,56.448788 0.01162,0.343451 0.14609,0.01162 -0.01248,-0.364065 0.441526,-0.01162 -0.519914,-2.1145 -0.528625,2.1145 z"
         id="path152" /><path
         style="opacity:1;fill:#496e47;fill-opacity:1;fill-rule:nonzero;stroke:#496e47;stroke-width:0.0499999;stroke-linecap:butt;stroke-linejoin:round;stroke-dasharray:none;stroke-dashoffset:0;stroke-opacity:1;paint-order:normal"
         d="m 69.632512,67.011035 0.01162,0.343451 0.14609,0.01162 -0.01248,-0.364065 0.441526,-0.01162 -0.519914,-2.1145 -0.528625,2.1145 z"
         id="path153" /><path
         style="opacity:1;fill:#496e47;fill-opacity:1;fill-rule:nonzero;stroke:#496e47;stroke-width:0.0499999;stroke-linecap:butt;stroke-linejoin:round;stroke-dasharray:none;stroke-dashoffset:0;stroke-opacity:1;paint-order:normal"
         d="m 71.82611,68.001692 0.01162,0.343451 0.14609,0.01162 -0.01248,-0.364065 0.441526,-0.01162 -0.519914,-2.1145 -0.528625,2.1145 z"
         id="path154" /><path
         style="opacity:1;fill:#496e47;fill-opacity:1;fill-rule:nonzero;stroke:#496e47;stroke-width:0.0499999;stroke-linecap:butt;stroke-linejoin:round;stroke-dasharray:none;stroke-dashoffset:0;stroke-opacity:1;paint-order:normal"
         d="m 73.807424,68.992349 0.01162,0.343451 0.14609,0.01162 -0.01248,-0.364065 0.441526,-0.01162 -0.519914,-2.1145 -0.528625,2.1145 z"
         id="path155" /><path
         style="opacity:1;fill:#496e47;fill-opacity:1;fill-rule:nonzero;stroke:#496e47;stroke-width:0.0499999;stroke-linecap:butt;stroke-linejoin:round;stroke-dasharray:none;stroke-dashoffset:0;stroke-opacity:1;paint-order:normal"
         d="m 76.071783,67.930931 0.01162,0.343451 0.14609,0.01162 -0.01248,-0.364065 0.441526,-0.01162 -0.519914,-2.1145 -0.528625,2.1145 z"
         id="path156" /><path
         style="opacity:1;fill:#496e47;fill-opacity:1;fill-rule:nonzero;stroke:#496e47;stroke-width:0.0499999;stroke-linecap:butt;stroke-linejoin:round;stroke-dasharray:none;stroke-dashoffset:0;stroke-opacity:1;paint-order:normal"
         d="m 73.59514,66.444945 0.01162,0.343451 0.14609,0.01162 -0.01248,-0.364065 0.441526,-0.01162 -0.519914,-2.1145 -0.528625,2.1145 z"
         id="path157" /><path
         style="opacity:1;fill:#496e47;fill-opacity:1;fill-rule:nonzero;stroke:#496e47;stroke-width:0.0499999;stroke-linecap:butt;stroke-linejoin:round;stroke-dasharray:none;stroke-dashoffset:0;stroke-opacity:1;paint-order:normal"
         d="m 77.829066,66.981666 0.01162,0.343451 0.14609,0.01162 -0.01248,-0.364065 0.441526,-0.01162 -0.519914,-2.1145 -0.528625,2.1145 z"
         id="path158" /><path
         style="opacity:1;fill:#496e47;fill-opacity:1;fill-rule:nonzero;stroke:#496e47;stroke-width:0.0499999;stroke-linecap:butt;stroke-linejoin:round;stroke-dasharray:none;stroke-dashoffset:0;stroke-opacity:1;paint-order:normal"
         d="m 80.317457,67.241216 0.01162,0.343451 0.14609,0.01162 -0.01248,-0.364065 0.441526,-0.01162 -0.519914,-2.1145 -0.528625,2.1145 z"
         id="path159" /><path
         style="opacity:1;fill:#496e47;fill-opacity:1;fill-rule:nonzero;stroke:#496e47;stroke-width:0.0499999;stroke-linecap:butt;stroke-linejoin:round;stroke-dasharray:none;stroke-dashoffset:0;stroke-opacity:1;paint-order:normal"
         d="m 78.506867,70.235318 0.01162,0.343451 0.14609,0.01162 -0.01248,-0.364065 0.441526,-0.01162 -0.519914,-2.1145 -0.528625,2.1145 z"
         id="path160" /><path
         style="opacity:1;fill:#496e47;fill-opacity:1;fill-rule:nonzero;stroke:#496e47;stroke-width:0.0499999;stroke-linecap:butt;stroke-linejoin:round;stroke-dasharray:none;stroke-dashoffset:0;stroke-opacity:1;paint-order:normal"
         d="m 81.725539,68.779252 0.01162,0.343451 0.14609,0.01162 -0.01248,-0.364065 0.441526,-0.01162 -0.519914,-2.1145 -0.528625,2.1145 z"
         id="path161" /></g><g
       id="g72"
       style="display:inline"><path
         id="path72"
         style="display:none;fill:none;stroke:#c8beb7;stroke-width:0.7;stroke-linecap:round;stroke-linejoin:round;stroke-dasharray:none;stroke-opacity:1"
         d="m 110.50572,127.6245 -1.05406,-1.30208 -1.11608,-0.80606 -0.93006,-1.24008 -1.05407,-1.05407 -1.11607,-1.17807 -0.86806,-0.99207 -1.17808,-0.68204 -1.05407,-0.31002 -1.24008,-0.24802 -0.80605,-0.062 -1.116075,-0.86806 -0.496033,-0.62004 M 94.103317,100.2321 h 2.00461 l 1.503458,0.14319 2.290982,0.64434 1.073903,0.50115 2.0762,0.78752 0.78753,0.42956 1.64664,0.50116 1.93302,-0.85912 1.57505,-0.93071 1.50345,-0.78753 1.43187,-0.715931 2.43417,-0.787527 1.86142,-0.501153 h 1.57506 l 1.07389,-0.07159 1.43187,0.572746 1.14549,1.073895 0.35797,1.36027 v 1.0739 l -0.21479,1.57505 0.57275,1.64665 0.50115,1.0023 0.21478,1.86142 0.50116,1.50346 v 1.50346 2.64895 l -0.21478,3.43647 -0.42956,1.1455 -0.85912,0.50115 -1.28868,0.71593 -0.71593,0.50115 -1.86143,0.85912 -0.78752,0.78753 -0.50115,1.64664 -0.85912,1.36027 -0.78753,1.1455 -0.78752,0.35796 -0.57275,1.0739 0.42956,1.78983 0.93071,0.93071 0.78753,1.21709 1.21708,1.50345 0.85912,0.64434 1.0023,1.00231 1.71824,2.72054 1.43187,1.86143 1.74033,2.52508 1.30209,2.17014 1.11607,1.05407 1.05407,1.4261 1.24008,1.48809 1.67411,1.4881 0.86806,1.24008 1.11607,1.36409 0.86806,1.24008 0.74405,1.05407 -0.062,0.68205 -0.55803,0.55803 -0.86806,0.31003 -0.49603,0.24801 -1.4261,0.43403 -1.05406,-0.12401 -2.04614,-0.31002 -1.24008,-0.55804 -3.0382,-1.36408 -1.92213,-0.74405 -0.99206,-0.68205 -1.98413,-1.24008 -2.72818,-1.36409 -1.24008,-0.86806 -0.74405,-0.62004 -1.73612,-1.86012 -1.98413,-0.86806 -1.5501,-1.30208 -2.35615,-1.5501 -2.29416,-0.93007 -1.92212,-0.99206 -1.11608,-0.55804 -0.992061,-0.86806 -1.426094,-1.17807 -1.67411,-1.36409 -1.860122,-1.4261 -1.054069,-1.48809 -1.116074,-1.36409 -0.806053,-1.61211 -0.930061,-1.36409 -0.992065,-0.93006 -1.116074,-1.5501 -1.240091,-1.30209 -0.620041,-1.05407 -0.558037,-0.99206 -0.496032,-1.30209 v -0.68204 l 0.744048,-0.37203 0.496033,0.62004 0.248016,0.68205 0.248017,0.93006 0.620041,0.86806 0.930061,1.05407 1.240081,1.48809 0.682045,0.55804 1.426094,1.4881 0.744049,1.42609 1.426094,1.30209 1.302085,1.42609 1.736115,1.4881 1.860122,0.99206 1.240083,1.05407 1.4881,0.62004 1.24008,0.93007 1.67411,0.93006 0.49603,-0.062 -0.12401,-0.43403 -0.62004,-0.99206 -2.41816,-1.61211 -0.80605,-0.80605 -1.860123,-1.5501 -0.682045,-1.4261 -1.240081,-1.30208 -1.36409,-1.92213 -0.868057,-0.86806 -0.372024,-0.99206 -0.186013,-0.80605 0.930061,0.18601 0.744049,0.43403 2.046135,1.05407 0.620041,0.49603 1.116077,0.86806 0.99206,0.49603 0.86806,0.68204 0.74405,0.24802 h 1.36409 l 0.62004,-0.24802 0.62004,-0.31002 0.062,-0.31002 0.31002,-0.62004 0.43403,-0.43403 0.93006,-0.124 h 0.68205 l 0.37202,-0.062 0.37203,-0.62004 0.37202,-0.24802 0.93006,-0.55803 0.80606,-0.31002 0.86805,0.55803 0.37203,-0.18601 0.86805,0.18601 h 0.68205 m -19.860579,-15.75084 1.360271,-0.85912 0.357965,-1.14549 -0.07159,-1.14549 -0.357966,-1.21709 -0.501152,-0.93071 -0.787525,-0.64434 -0.644339,-0.0716 -0.286375,0.42956 -0.501152,0.85912 m -1.789833,-31.214641 0.572746,2.505763 0.715931,1.718239 0.214781,1.718236 0.07159,2.00461 0.572747,1.145492 -0.357968,2.147798 -0.286372,1.718236 -0.143187,2.935322 -0.214779,1.789832 0.214779,2.00461 1.002305,2.219389 0.715933,0.501152 0.64434,1.145492 v 0.64434 l -0.286374,1.36027 -0.429559,0.78753 -1.002306,1.28867 -1.073898,0.71594 -0.501153,0.93071 0.501153,0.57275 0.787527,0.93071 0.644337,2.50576 0.357968,1.28868 0.357965,1.28868 1.002305,1.78983 1.217084,1.64664 1.145492,1.86142 1.145492,1.00231 1.073899,-0.78752 0.357965,-1.57506 0.214781,-1.43186 0.143185,-1.43187 0.286376,-1.93301 v -1.36027 l -0.715935,-1.21709 M 63.382308,49.309237 62.925116,47.088589 v -0.391877 m 7.968202,5.355677 -1.436888,-1.240951 -1.045012,0.130627 -1.502201,0.39188 h -1.045011 l -1.894081,-0.849072 -0.653132,-0.783757 -1.045009,-0.06531 -0.653132,0.457192 -1.306263,0.39188 -1.632829,-0.19594 -0.849069,-0.06531 -1.240951,0.19594 -1.763453,0.326564 -0.58782,0.914384 -0.522504,1.306264 0.195939,1.110324 0.130625,1.306261 v 0.849072 l 0.326567,1.240949 0.19594,1.240948 0.457192,0.849072 m 18.026425,-17.177363 -0.849069,1.894081 0.522504,1.894081 0.326565,1.240951 -0.391877,1.110324 -1.502204,1.828766 -0.326564,1.045011 0.391877,1.698141 0.718444,0.849072 m -20.377697,9.99291 2.547212,-1.894081 0.979697,-2.28596 2.28596,-1.240949 1.698141,-1.567516 2.155333,-1.110324 2.28596,-1.502201 1.894081,-0.653132 2.4819,-0.06531 3.461596,0.326565 3.069717,0.783756 3.004405,0.78376 1.436888,1.306261 1.240952,1.371576 1.371576,1.698143 1.240949,2.873777 0.326564,1.763456 0.522507,2.481898 -0.326567,1.698143 -0.849069,2.155333 -0.783759,1.894081 -1.175637,0.783756 -1.306263,0.130628 -1.567514,0.261252 -1.306263,0.19594 -0.783757,0.979696 -0.130628,1.371577 -0.326564,0.783756 -0.78376,0.457192 M 85.70641,30.300758 v 2.255501 l -0.196133,1.372915 -0.39226,1.176782 -0.784522,1.667111 -1.765175,1.078719 -2.451632,1.47098 -2.843895,1.274848 -1.569046,0.882589 -2.549696,0.588391 -0.784522,0.490326 -1.961306,0.294195 -2.059371,0.09806 -1.765175,0.294198 -1.863241,0.294196 -1.176785,-0.588394 -1.372912,-0.980651 m -7.984847,-8.281954 2.423377,-1.250775 2.501553,-1.250775 1.797989,1.016256 0.859909,0.93808 1.563471,0.390869 1.876163,0.547214 1.876163,0.234522 1.797992,-0.469043 1.172601,-1.016254 1.641645,-1.563471 0.625387,-1.328949 0.625388,-2.267032 1.407123,-1.56347 1.250775,-1.250776 1.172605,-0.781735 m -28.781044,41.056364 -0.06796,-2.58226 -0.611587,-1.834761 -0.475678,-1.834763 -0.815452,-0.883404 -1.766808,0.407725 -1.970669,0.611587 -1.223174,1.29113 -0.407726,1.970669 -1.019312,0.61159 -1.359083,0.611587 -0.815451,0.67954 -0.883404,0.95136 -1.087266,0.33977 -1.155221,-0.33977 -1.291129,-0.339773 -1.087266,-0.747495 1.494991,-2.989983 0.06795,-1.630899 -0.407723,-1.019313 -0.407725,-1.291129 1.698852,-1.698853 2.174534,-1.359085 1.630899,-1.766808 2.446351,-1.359083 2.106578,-1.359082 0.815451,-1.427038 0.06795,-1.834761 -0.06795,-1.359086 -0.543634,-1.359082 v -1.155221 l -0.06795,-1.698853 m 8.412378,23.509139 -1.166442,0.801929 -2.259981,0.874831 -1.312248,1.749663 -1.530953,0.729025 -1.385152,0.874832 -2.041271,0.874831 -1.458053,0.291611 -1.603859,0.218707 -1.749663,-0.729025 -2.187078,-0.947735 -1.822563,-2.259981 -1.020639,-1.895467 -0.364513,-1.96837 -1.603857,-3.57223 -0.437414,-2.25998 -0.729028,-1.968371 -0.291611,-1.603856 0.291611,-1.239346 0.874832,-1.312246 1.530955,-1.312248 1.968371,-0.874832 2.624494,-0.729025 1.603857,-1.749663 1.458053,-1.822566 1.96837,-1.67676 1.312246,-1.239343 1.093539,-1.822566 1.166442,-1.093539 2.405787,-1.458053 2.551592,-1.312246 2.551591,-0.583221 2.041273,-1.312248 2.041274,-1.895467 2.843202,-2.843202 1.67676,-1.895467 0.874831,-1.312249 1.38515,-1.239344 2.041273,-1.166442 2.332884,-1.530954 2.187078,-0.656124 1.093539,0.583221 0.364514,0.947734 1.458052,0.656123 1.749663,0.437416 1.093539,-1.166442 1.020635,0.0729 0.801929,0.947734 0.583221,0.0729 1.822566,-0.583221 1.530956,-0.0729 1.239343,0.145805 0.874831,1.530955 0.801929,1.239343 0.656124,1.60386 0.729025,0.874831 1.385152,1.749663 0.656122,3.499324 1.312248,2.041273 0.801928,1.530956 1.020636,1.093539 1.530956,2.114174 0.656124,1.822567 1.312246,1.749663 0.801928,2.405787 0.947735,1.45805 1.093539,2.114177 0.437414,1.603857 1.020639,2.405787 0.729025,1.166442 0.437417,2.114174 1.16644,2.332885 1.09354,1.603859 0.36451,1.895467 -0.43741,1.093539 -1.02064,0.729027 -1.093537,0.218707 -1.385152,0.510318 -1.822564,0.874832 -0.729027,0.947734 -1.166442,1.749661 -0.510318,1.312249 -0.510318,1.166442 -0.874831,2.041273 -0.729025,1.38515 -0.729028,1.166442 -1.749663,0.364511 -1.312246,0.0729 -3.57223,0.801928 -1.96837,0.364514 -2.624492,0.218707 -1.530956,0.437417 -1.67676,-0.145806 -1.312248,-0.218707 -1.749661,-0.801929 -0.874831,-0.729027" /><path
         style="color:#000000;fill:#c8beb7;stroke:#606f66;stroke-width:0.05;stroke-linecap:round;stroke-linejoin:bevel;stroke-dasharray:none;stroke-opacity:1"
         d="m 68.185547,21.267578 c -1.166203,0.291402 -2.891331,1.521531 -3.087891,1.634766 -1.253598,0.554031 -4.196537,2.894462 -5.681641,4.988322 -2.904655,2.756979 -5.335088,6.513207 -9.212891,7.347656 L 50.160156,35.25 c -3.137433,1.115508 -6.767638,2.712626 -8.367187,6.013672 -2.338794,1.952123 -4.358208,4.157451 -6.314453,6.455078 -1.059831,0.875641 -2.723719,1.380229 -4.228516,2.091797 -1.506749,0.712491 -2.897003,1.70961 -3.179688,3.591797 l 0.0059,0.134765 c 0.761089,3.064207 1.433411,6.209469 2.927734,9.105469 0.517588,3.030254 2.208869,6.408951 5.392578,7.453125 1.797287,1.093663 3.690837,0.937665 5.453125,0.320313 1.769737,-0.619962 3.45178,-1.683046 4.949219,-2.433594 l 0.01367,-0.0078 c 1.511446,-0.843658 3.117987,-2.371895 4.759766,-3.4375 0.04203,-0.02851 0.07735,-0.06584 0.103515,-0.109375 1.870419,-0.966105 3.001081,-2.806079 3.871094,-4.421875 0.06411,-0.04577 0.110903,-0.111835 0.132812,-0.1875 2.359411,-1.145948 3.996208,-3.098449 6.257813,-4.033203 l 0.08398,-0.05078 c 2.028657,-1.612611 4.40111,-1.948589 6.890625,-1.732422 2.480976,0.215426 5.053134,0.99109 7.402344,1.583984 5.43e-4,1.81e-4 0.0014,-1.8e-4 0.002,0 2.204178,0.731904 3.810937,3.071782 5.117188,5.101563 1.27465,3.00495 2.485846,6.514743 0.865234,9.457031 l -0.03711,0.101563 c -0.196832,0.990399 -0.643638,1.846731 -1.28125,2.419922 -0.637613,0.57319 -1.459151,0.87781 -2.501953,0.769531 l 0.01758,0.0039 c -1.445775,-0.227663 -2.371254,0.366475 -2.914063,1.197266 -0.523994,0.801994 -0.783295,1.780743 -1.146484,2.554687 l -0.201172,0.117188 -0.15625,0.0918 C 73.609728,77.151088 73.05797,77.015951 72.6875,76.671875 c -0.141385,-0.131393 -0.362451,-0.123528 -0.494141,0.01758 -0.132707,0.141634 -0.12482,0.364209 0.01758,0.496094 1.744854,1.620542 4.5142,2.328629 6.808594,1.728515 3.794698,-0.404317 7.499147,-1.326134 11.216797,-1.884765 0.502938,2.588028 1.271057,4.770305 1.513672,7.625 v 0.002 c 0.201714,2.229663 -0.501631,4.551639 -0.169922,6.996094 -0.212197,1.349277 -0.314391,2.852411 -0.07031,4.273437 0.239581,1.394844 0.839663,2.711858 1.992187,3.671875 0.0049,0.008 0.01011,0.01584 0.01563,0.02344 l -0.03906,-0.04297 c 0.645058,0.996605 0.466002,1.984405 -0.08984,2.964845 -0.555847,0.98043 -1.507861,1.89063 -2.3125,2.51367 l -0.126953,0.19531 c -0.208376,0.88237 0.118718,1.76293 0.523437,2.6211 0.40472,0.85816 0.850229,1.52947 1.117858,2.34921 0.20917,0.46216 0.609194,1.51973 0.940701,2.26994 l 0.189453,0.44922 c 0.971648,2.10082 2.260014,4.04522 3.701172,5.73437 0.0066,0.0576 0.650235,0.49322 0.683367,0.54077 0.893853,0.94226 1.511215,0.79103 2.681868,0.97876 1.16663,0.18709 2.27482,0.34579 3.05469,0.95508 2.16473,2.1359 4.22345,4.4189 6.32422,6.625 -0.087,0.0341 -0.17525,0.0306 -0.26172,0.0703 -0.80779,0.37284 -1.97919,1.34994 -2.17792,1.506 -0.0684,0.053 -1.46125,0.97795 -2.04492,1.46289 -0.6198,0.51498 -1.18671,0.8438 -2.29297,0.50586 l -0.0273,-0.008 c -1.32247,-0.29251 -3.2167,-1.68474 -4.843749,-2.875 -0.813525,-0.59513 -1.565119,-1.13749 -2.205078,-1.46875 -0.31998,-0.16563 -0.609923,-0.28279 -0.902344,-0.3125 -0.267319,-0.0272 -0.552455,0.0915 -0.74414,0.30273 -0.16833,0.10731 -0.331718,0.24649 -0.375,0.43165 -0.0522,0.22328 -0.0098,0.43668 0.06445,0.64843 0.148511,0.4235 0.450178,0.87549 0.824218,1.36524 0.748081,0.97949 1.800356,2.0847 2.513672,2.90625 l 0.01563,0.0156 c 1.339293,1.36562 2.309671,2.9823 3.832031,4.3125 l 0.0352,0.0274 c 0.82089,0.5481 1.79132,1.08543 2.42968,1.63085 0.3192,0.27272 0.54911,0.54479 0.65039,0.78516 0.0702,0.16658 -0.0237,0.22622 -0.0643,0.39311 -0.11811,-0.0116 -0.1993,0.0959 -0.46111,-0.0318 -0.3616,-0.17611 -0.80669,-0.46295 -1.2793,-0.79492 -0.94522,-0.66395 -2.32848,-1.55842 -2.881748,-2.02924 -0.868381,-0.39287 -4.326716,-3.28545 -6.253012,-5.17973 -6.44e-4,-6.3e-4 -0.0013,-0.001 -0.002,-0.002 -1.521331,-2.06108 -3.226078,-3.7583 -4.804688,-5.6543 -0.488875,-0.74767 -0.77289,-1.82077 -1.1875,-2.65625 -0.207926,-0.41899 -0.45552,-0.79793 -0.849609,-1.01367 -0.558133,-0.25912 -1.242083,-0.19683 -1.634766,0.28708 -0.327437,0.53153 0.332528,2.45382 1.144531,3.55078 0.812004,1.09697 1.848699,2.13165 2.544922,3.0586 l 0.03906,0.0449 c 1.589877,1.94225 3.082001,4.74416 5.080078,7.01367 l 0.04687,0.0449 c 2.848519,2.22001 5.453265,5.05415 8.960942,6.55469 l -0.0234,-0.01 c 2.83966,1.47962 7.07931,3.77917 8.44531,4.7793 l -0.0332,-0.0273 c 2.36884,2.2235 5.71834,4.1345 8.61523,6.08398 l 0.0371,0.0215 c 2.56991,1.30869 5.30117,2.69119 8.14649,3.4336 0.96254,0.26137 2.39929,0.49481 3.63867,0.33203 0.62035,-0.0815 1.2021,-0.26205 1.63672,-0.63672 0.43461,-0.37467 0.68185,-0.9609 0.61914,-1.67383 l -0.043,-0.13867 c -1.14174,-2.05408 -2.56199,-4.15526 -4.26172,-5.88672 l -0.006,-0.006 c -2.48529,-2.42007 -4.64076,-5.13398 -6.45117,-8.09179 l -0.0176,-0.0254 c -1.91075,-2.57883 -3.7739,-5.40435 -6.02148,-7.6836 -9.8e-4,-9.9e-4 -9.8e-4,-0.003 -0.002,-0.004 -1.08579,-1.66105 -2.70981,-2.91233 -3.10546,-4.59375 -0.0664,-0.40957 0.0118,-0.72303 0.19336,-1.03711 0.18357,-0.31762 0.48085,-0.62791 0.82226,-0.95118 0.68281,-0.64652 1.55651,-1.3471 1.82227,-2.4707 l 0.01,-0.0703 c 0.0325,-1.10546 0.57933,-1.68808 1.38281,-2.20899 0.80349,-0.5209 1.85169,-0.90823 2.71875,-1.52343 l -0.11328,0.0527 c 0.80513,-0.20882 1.39386,-0.61519 1.78907,-1.14062 0.3952,-0.52543 0.59809,-1.15286 0.70703,-1.80664 0.21786,-1.30757 0.0769,-2.75425 0.17383,-3.86914 v -0.0215 c 0.0425,-1.70688 -0.53187,-3.41546 -1.04297,-5.00195 -0.51111,-1.58649 -0.94697,-3.04989 -0.75196,-4.19141 l -0.008,0.0371 c 0.32716,-1.13778 0.37675,-2.45194 -0.01,-3.58984 -0.38652,-1.137908 -1.25551,-2.100393 -2.65821,-2.376956 l -0.0176,-0.0039 c -2.65103,-0.384886 -5.71533,0.801514 -8.33398,2.039066 -1.30932,0.61877 -2.50629,1.25555 -3.4668,1.73047 -0.48025,0.23746 -0.90301,0.43452 -1.24218,0.56641 -0.33918,0.13188 -0.60499,0.18864 -0.70508,0.18554 l -0.0625,0.004 c -0.27239,0.0397 -1.02316,-0.03 -1.95117,-0.2207 -0.92802,-0.19066 -2.06211,-0.48778 -3.23829,-0.85352 -2.330374,-0.72464 -4.820961,-1.73106 -6.222655,-2.666019 l -0.0332,-0.03711 C 92.951709,98.278217 92.423052,97.112676 92.19865,95.806208 91.974248,94.499739 92.065869,93.06314 92.27092,91.759333 v -0.105469 c -0.33776,-2.2775 0.396721,-4.610743 0.175782,-7.058594 -0.257571,-3.030665 -1.075319,-5.288966 -1.564454,-7.908203 2.39892,-2.38255 3.125799,-6.052074 4.757813,-8.763672 l 0.01367,-0.02344 c 0.566764,-1.121943 1.752155,-1.465791 3.052734,-1.841797 0.65029,-0.188004 1.315385,-0.379034 1.908195,-0.707032 0.59282,-0.327997 1.11584,-0.8103 1.41016,-1.53125 l 0.0234,-0.08984 c 0.19164,-1.570612 -0.32119,-2.967673 -0.97461,-4.275391 -0.65342,-1.307718 -1.449938,-2.545139 -1.9082,-3.814453 l -0.0293,-0.0625 c -1.69284,-2.799701 -2.497937,-6.018735 -4.274782,-9.036676 -0.638415,-2.282835 -1.817474,-3.977249 -2.777344,-5.996094 l -0.03906,-0.06445 c -1.71145,-2.200943 -3.338147,-4.383271 -4.638672,-6.814453 -0.455758,-2.109686 -1.019424,-4.446642 -2.835938,-6.13086 l 0.07813,0.105469 c -0.356403,-0.740802 -0.717698,-1.679155 -1.18164,-2.537109 -0.463942,-0.857954 -1.033182,-1.654261 -1.865235,-2.064454 l -0.01563,-0.0078 c -1.107624,-0.482304 -2.261381,0.03034 -3.205078,0.289062 -0.471848,0.129363 -0.889053,0.198173 -1.210937,0.134766 -0.321884,-0.06341 -0.454174,-0.38953 -0.85969,-0.609209 -0.782626,-0.587183 -2.170566,-0.0091 -3.038748,0.230303 -0.784753,0.222173 -2.036824,-0.300611 -2.311374,-0.495118 -0.290801,-0.326892 -0.428389,-0.934347 -1.061675,-1.254897 -0.529172,-0.233658 -1.127603,-0.204841 -1.71289,-0.05859 z m 0.169922,0.679688 c 0.495189,-0.123734 0.934298,-0.12418 1.259765,0.01953 0.325468,0.143711 0.576194,0.308068 0.736222,0.91577 0.226322,0.669052 2.673542,0.821197 3.07315,0.685776 0.957151,-0.324364 1.785727,-0.696502 2.463333,-0.33824 0.264604,0.133162 0.470993,0.421654 0.703858,0.5531 -0.0046,0.0012 -0.0091,0.0025 -0.01367,0.0039 -1.933966,1.351022 -4.165496,3.145937 -4.511719,5.769532 l 0.01758,-0.07227 c -0.159825,1.055824 -1.452826,2.64641 -2.666015,3.492187 -1.213189,0.845778 -3.326182,1.101936 -4.105469,0.769532 -1.000964,-0.17799 -1.88234,-0.686411 -2.738285,-1.208974 -0.889547,-0.57913 -2.17771,-1.337162 -2.847657,-1.359409 -0.652303,-0.13955 -1.955787,0.403301 -2.904296,0.892578 -0.280414,0.144649 -0.532248,0.233501 -0.808594,0.378907 1.329608,-1.353815 3.565,-3.65807 3.935549,-4.111325 0.417779,-1.170624 5.017691,-4.603897 5.5,-4.835938 0.452657,-0.241057 1.838276,-1.242985 2.906247,-1.554691 z m 11.932021,1.467976 c 0.62869,-0.126467 0.815315,-0.05822 1.092615,0.17536 0.222754,0.118268 1.264051,1.04523 1.469504,1.844949 0.0059,0.02286 0.792435,1.727247 1.167969,2.507812 l 0.07813,0.105469 c 0.818584,0.758967 1.358154,1.682891 1.755859,2.677734 -0.0037,0.0096 -0.007,0.01939 -0.0098,0.0293 0.08799,1.402605 -0.106532,2.897243 -0.685547,4.152344 -0.579015,1.255101 -1.525284,2.271708 -3,2.791016 l -0.0625,0.0293 c -2.036649,1.201926 -4.133963,2.341569 -6.309064,3.203113 -0.02543,0.01007 -1.398108,-2.259433 -1.398108,-2.259433 0.03869,-0.002 -0.553086,0.435503 -0.553086,0.435503 0,0 1.345914,2.055596 1.313353,2.067567 -0.780148,0.286813 -1.570375,0.53568 -2.371458,0.736843 l -0.04883,0.01563 c -2.472855,1.029515 -5.174153,1.567232 -7.912109,1.261719 -0.867105,-0.373426 -1.647438,-0.912412 -2.433594,-1.5 -0.155274,-0.115647 -0.374938,-0.08326 -0.490234,0.07227 -0.114745,0.154422 -0.08334,0.372507 0.07031,0.488281 0.810157,0.605527 1.646564,1.199321 2.623047,1.611328 l 0.0957,0.02539 c 2.72441,0.315379 5.37858,-0.220143 7.828125,-1.169922 -0.197932,0.328653 -0.454741,0.652545 -0.5,0.990234 -0.07159,0.534187 0.01139,1.053123 0.126954,1.550781 0.228951,0.985984 0.54806,1.890758 0.341796,2.691407 -0.420388,0.715981 -1.083212,1.453359 -1.535156,2.298828 -0.178694,0.334291 -0.260898,0.714409 -0.328125,1.095703 -0.212886,-0.196855 -0.396761,-0.484909 -0.638672,-0.580078 -0.462861,-0.182093 -0.945485,-0.189005 -1.416015,-0.134766 -0.936928,0.108003 -1.867225,0.435657 -2.664063,0.394531 -1.032991,-0.306683 -1.958724,-0.441728 -2.83789,-0.626953 7e-6,-0.0013 7e-6,-0.0026 0,-0.0039 -0.05325,-0.351889 -0.009,-1.070713 0.06055,-1.783203 0.06959,-0.71249 0.159054,-1.425705 0.158204,-1.914063 -0.0013,-0.192995 -0.158566,-0.348522 -0.351563,-0.347656 -0.192995,2.15e-4 -0.349394,0.156615 -0.349609,0.34961 6.89e-4,0.39585 -0.08175,1.120913 -0.152344,1.84375 -0.06151,0.629771 -0.08737,1.211479 -0.04883,1.705078 C 61.916309,50.16475 61.577714,50.015006 61,49.943359 l -0.05273,-0.002 C 59.007915,49.993643 56.369764,49.385158 54.4375,50.75 l -0.07617,0.07422 c -0.909121,1.1932 -1.070679,2.746262 -0.955078,4.183593 0.115601,1.437332 0.512713,2.779231 0.792969,3.601563 l -0.01758,-0.08984 c 0.02421,0.378895 0.256418,0.612329 0.447265,0.833985 0.135135,0.156949 0.207048,0.25626 0.279297,0.355468 -0.876233,1.617101 -1.956834,3.374279 -3.658203,4.191402 -0.01736,0.01595 -0.03306,0.03362 -0.04687,0.05273 -0.0045,-0.0014 -0.0091,-0.0027 -0.01367,-0.0039 -0.833937,0.541271 -1.516347,1.052848 -2.287109,1.654297 -0.02552,-1.160953 -0.148994,-2.542856 -0.498047,-3.908204 -0.203309,-0.795256 -0.455192,-1.550466 -0.753906,-2.179687 -0.298714,-0.629221 -0.63444,-1.140899 -1.083985,-1.4375 l -0.07227,-0.03711 c -0.906763,-0.334012 -2.053558,-0.200684 -3.115235,0.18164 -1.061677,0.382324 -2.046012,1.01955 -2.574219,1.857422 l -0.01758,0.0332 c -0.643355,1.311042 -2.238685,2.32414 -3.564453,3.816406 l 0.01953,-0.02148 c -0.451518,0.430476 -1.366875,0.685581 -2.353515,0.662109 -0.913736,-0.02174 -1.834661,-0.319119 -2.523438,-0.751953 0.420843,-0.879578 0.648895,-1.766869 0.695313,-2.679687 0.05338,-1.049801 0.0149,-2.134876 0.193359,-3.34375 l 0.002,-0.07813 c -0.0326,-0.426816 0.0921,-0.757371 0.339844,-1.083985 0.247747,-0.326613 0.626742,-0.633431 1.064453,-0.929687 0.875423,-0.592512 1.974031,-1.119406 2.65625,-1.931641 l -0.08203,0.07031 c 1.341855,-0.840436 3.085514,-1.539379 4.482422,-2.558594 1.391835,-1.015514 2.441196,-2.430431 2.259765,-4.535156 0.03407,-1.137762 -0.434433,-1.996441 -0.835937,-2.779297 -0.404842,-0.789365 -0.742231,-1.497161 -0.613281,-2.480469 -8.31e-4,-0.02037 -0.0034,-0.04063 -0.0078,-0.06055 1.497725,-2.901628 4.829487,-4.434752 7.875,-5.517578 l -0.04492,0.01172 c 1.459375,-0.314037 2.671266,-1.051902 3.802735,-1.910156 0.578861,-0.557803 2.167185,-1.006051 2.990234,-1.320315 0.960093,-0.366591 1.781888,-0.826755 2.525391,-0.804687 0.886534,0.22433 1.685559,0.722861 2.539062,1.248047 1.655451,1.018647 4.552844,2.548233 7.611328,0.416015 1.346347,-0.938608 2.565595,-2.50303 2.925782,-3.828125 -0.01542,-2.935815 4.378908,-5.587891 4.378908,-5.587891 0.392505,-0.277195 1.443359,-0.352231 1.443359,-0.352231 0,0 0.944715,-0.192117 1.408792,-0.27921 z m 6.159776,9.422649 c 0.08554,0.353666 0.216937,0.693995 0.292968,1.046875 l 0.03516,0.08984 c 1.328263,2.488159 2.980896,4.697289 4.693359,6.900391 0.992183,2.079138 2.136465,3.731376 2.732422,5.892578 l 0.03711,0.08398 c 1.71708,2.898828 2.521729,6.111397 4.269531,9.027344 0.495997,1.373832 1.311766,2.628544 1.941404,3.888672 0.62002,1.240886 1.04705,2.470569 0.90039,3.818359 -0.22989,0.535727 -0.58748,0.886071 -1.07227,1.154297 -0.49711,0.275049 -1.115141,0.458992 -1.763664,0.646485 -1.295366,0.374499 -2.762282,0.778153 -3.480469,2.193359 -1.747991,2.913595 -2.470913,6.571128 -4.736328,8.730469 -3.836071,0.565063 -7.603925,1.518133 -11.404297,1.917969 l -0.05078,0.0098 c -1.282319,0.335399 -2.707164,0.06144 -4.033203,-0.453125 l 0.07813,-0.04492 0.136718,-0.148437 c 0.431694,-0.881618 0.697226,-1.887647 1.144532,-2.572266 0.447305,-0.684618 0.977641,-1.084106 2.21875,-0.888672 l 0.01953,0.002 c 1.221028,0.126786 2.26944,-0.25189 3.042969,-0.947265 0.748738,-0.673089 1.231398,-1.633967 1.46289,-2.703125 1.807958,-3.282423 0.450162,-7.05374 -0.841797,-10.095703 l -0.02734,-0.05273 c -1.315256,-2.04512 -2.974041,-4.571785 -5.507813,-5.412109 l -0.02539,-0.0078 C 75.198796,54.583783 73.707,54.333609 72.271496,54.009861 c -0.08087,-0.05157 -0.137438,-0.198514 -0.183747,-0.265596 l -0.56821,-0.834014 c -0.510639,-0.898959 -0.361332,-1.582997 0.03906,-2.332031 0.402642,-0.753239 1.08883,-1.503883 1.564453,-2.337891 l 0.0332,-0.08203 c 0.295365,-1.089799 -0.122253,-2.129944 -0.337891,-3.058594 -0.107819,-0.464324 -0.17086,-0.900306 -0.117187,-1.300781 0.05367,-0.400475 0.211436,-0.773717 0.597656,-1.167969 0.05082,-0.05564 0.08233,-0.126192 0.08984,-0.201172 3.206187,-0.878018 6.213939,-2.419686 9.060547,-4.099609 l -0.06055,0.0293 c 1.659178,-0.584265 2.762195,-1.766352 3.404297,-3.158203 0.343291,-0.744135 0.54136,-1.547484 0.654297,-2.363281 z m -44.552735,9.314453 c 0.06661,0.810584 0.309261,1.524895 0.623047,2.136718 0.4113,0.801957 0.798936,1.512606 0.763672,2.458985 l 0.002,0.04492 c 0.168835,1.870392 -0.685315,2.98028 -1.978516,3.923828 -1.2932,0.943547 -3.019839,1.640889 -4.441406,2.53125 l -0.08203,0.07227 c -0.529512,0.630426 -1.581648,1.171914 -2.513672,1.802735 -0.466012,0.31541 -0.903706,0.657729 -1.228516,1.085937 -0.324809,0.428209 -0.526541,0.957394 -0.480468,1.560547 l 0.002,-0.07617 c -0.189349,1.282614 -0.148053,2.403973 -0.199219,3.410157 -0.03521,0.69242 -0.272569,1.288029 -0.484375,1.90039 -0.03834,-0.179003 -0.165579,-0.342043 -0.195312,-0.519531 l -0.03516,-0.103516 c -1.443364,-2.77242 -2.105243,-5.845445 -2.865234,-8.914062 0.254538,-1.559108 1.346493,-2.351455 2.767578,-3.023438 1.436031,-0.67905 3.152902,-1.170327 4.380859,-2.1875 l 0.04297,-0.04297 c 1.849614,-2.174284 3.774074,-4.21473 5.921875,-6.060547 z m 15.826172,8.427734 c 1.054305,-0.02224 2.165594,0.08182 3.193359,0.05859 0.0013,-2.9e-5 0.0026,0.002 0.0039,0.002 2.050644,0.254578 3.02201,0.528287 4.845703,1.070312 l 0.08008,0.01367 c 1.005195,0.05611 1.977272,-0.306137 2.794922,-0.40039 0.408825,-0.04713 0.767632,-0.03307 1.080078,0.08984 0.312446,0.122919 0.671572,0.404493 0.873047,0.816407 0.0206,0.04362 0.07296,0.09769 0.08713,0.145375 0.01412,0.01704 0.05111,0.52384 0.254696,0.878041 l 0.05764,0.0938 0.379834,0.468719 c -0.819415,-0.162183 -1.573725,-0.440108 -2.398438,-0.511719 -2.58311,-0.224294 -5.167151,0.136681 -7.363281,1.871094 -2.429272,1.02802 -4.070063,2.960161 -6.234375,4.013672 -0.07806,-0.09087 -0.141352,-0.207613 -0.214844,-0.292969 -0.175276,-0.203571 -0.278069,-0.402656 -0.279297,-0.421875 l -0.01953,-0.0918 C 54.5913,57.590526 54.211566,56.294686 54.103513,54.9512 c -0.106458,-1.323653 0.06751,-2.666937 0.792968,-3.652344 0.788776,-0.534949 1.774435,-0.696601 2.824219,-0.71875 z m -11.511719,8.123047 c 0.252252,0.180671 0.549562,0.563533 0.810547,1.113281 0.270538,0.56987 0.511772,1.28701 0.707031,2.050781 0.376343,1.472092 0.558847,3.088264 0.539063,4.197266 -0.586506,0.447901 -1.271424,1.006622 -1.794922,1.298828 -1.541,0.773525 -3.195159,1.811634 -4.853516,2.392578 -1.662908,0.582539 -3.282046,0.718688 -4.876953,-0.261718 l -0.07813,-0.03516 c -2.12474,-0.672346 -3.349863,-2.653587 -4.152343,-4.77539 0.731795,0.338291 1.541289,0.566383 2.363281,0.585937 1.107541,0.02635 2.179595,-0.212865 2.851562,-0.853515 l 0.02148,-0.02148 c 1.237937,-1.393405 2.896564,-2.396692 3.669922,-3.972656 l -0.01953,0.03125 c 0.397902,-0.631174 1.268776,-1.229464 2.220703,-1.572266 0.93638,-0.337202 1.934145,-0.405271 2.591797,-0.177734 z m 72.927736,40.357422 c 1.15654,0.232087 1.79571,0.954173 2.12109,1.912113 0.3265,0.9612 0.29183,2.15696 0,3.17187 l -0.008,0.0371 c -0.23857,1.39651 0.263,2.93491 0.77539,4.52539 0.51239,1.59048 1.04799,3.23454 1.00977,4.76953 -0.10271,1.21442 0.03,2.62849 -0.16407,3.79297 -0.0976,0.58555 -0.27358,1.0977 -0.57617,1.5 -0.30259,0.4023 -0.72976,0.70931 -1.40625,0.88477 l -0.11523,0.0547 c -0.75729,0.53731 -1.79835,0.92631 -2.69531,1.50782 -0.89697,0.5815 -1.66159,1.42654 -1.70118,2.77343 l 0.01,-0.0703 c -0.19955,0.84366 -0.91531,1.45487 -1.62305,2.125 -0.35387,0.33507 -0.63778,0.69472 -0.88357,1.12 -0.14464,0.25025 -0.34562,0.79522 -0.37938,0.81183 -0.14488,0.18273 -2.47591,-0.1148 -2.74094,-0.59398 -2.12748,-2.23066 -4.22343,-4.56328 -6.44532,-6.7539 l -0.0293,-0.0254 c -0.98132,-0.7729 -2.23183,-0.9144 -3.38672,-1.09961 -0.927849,-0.1488 -1.734292,-0.39374 -2.402346,-0.8418 0.211992,-0.0706 0.325699,-0.0906 0.475923,-0.24493 0.347106,-0.35664 0.697074,-0.75847 0.826811,-1.29218 0.259472,-1.06741 0.287312,-2.35175 0.408202,-3.04297 l 0.004,-0.0332 c 0.0614,-0.78666 0.28355,-1.66744 0.33203,-2.56055 0.0485,-0.89311 -0.098,-1.83026 -0.810548,-2.61328 -0.130228,-0.1441 -0.352881,-0.1546 -0.496094,-0.0234 -0.142244,0.13059 -0.151855,0.3517 -0.02148,0.49414 0.562974,0.61862 0.674154,1.30599 0.630859,2.10352 -0.04329,0.79753 -0.263928,1.67295 -0.332031,2.54492 -0.137114,0.80754 -0.166588,2.02715 -0.394531,2.96484 -0.115246,0.47409 -0.400457,0.76361 -0.597442,0.966 -0.177715,0.1826 -0.270097,0.31733 -0.60373,0.24885 -1.432873,-1.68251 -2.673451,-3.56898 -3.591797,-5.57813 1.279912,-0.66482 2.082394,-1.92656 2.105469,-3.2207 0.01319,-0.74008 -0.191669,-1.46888 -0.660157,-2.02539 -0.468487,-0.55651 -1.201662,-0.91599 -2.136718,-0.92969 h -0.01563 c -0.376182,0.0115 -0.756093,0.19197 -1.103516,0.44531 -0.173712,0.12668 -0.332946,0.27364 -0.447266,0.46094 -0.0086,0.0141 0.0022,0.0378 -0.0059,0.0527 -0.315995,-0.71141 -0.535701,-1.37023 -0.421875,-1.91797 0.820166,-0.65291 1.760249,-1.51894 2.357422,-2.57227 0.48401,-0.85372 0.571705,-1.83775 0.302734,-2.80859 1.540898,0.89259 3.644649,1.75583 5.736331,2.40625 1.19515,0.37164 2.34633,0.67421 3.30469,0.87109 0.94215,0.19356 1.65763,0.29052 2.1582,0.22461 0.29379,0.004 0.59106,-0.0843 0.95703,-0.22656 0.37496,-0.1458 0.80872,-0.35043 1.29688,-0.5918 0.97631,-0.48273 2.16671,-1.11481 3.45703,-1.72461 2.57807,-1.218372 5.56132,-2.318744 7.92578,-1.978513 z m -25.503908,8.062503 c 0.761174,0.0137 1.266775,0.27772 1.603516,0.67773 0.338427,0.40201 0.506821,0.96087 0.496094,1.5625 -0.01855,1.04032 -0.665778,2.05832 -1.673828,2.60547 -0.231066,-0.58591 -0.693058,-1.63606 -0.736328,-1.73828 -0.02023,-0.0302 -0.582155,-1.34319 -0.875005,-2.01371 l 0.218753,-0.52543 c 0.02625,-0.0318 0.138168,-0.16968 0.261718,-0.25977 0.244331,-0.17817 0.616906,-0.30328 0.705078,-0.30859 z m -6.537109,16.31445 c 0.360638,0.72672 0.647589,1.84547 1.234375,2.73828 l 0.02148,0.0312 c 1.623276,1.95267 3.340842,3.65304 4.835938,5.6875 l 0.03516,0.041 c 1.88738,1.85599 4.331728,4.01002 6.417969,5.24804 l -0.02344,-0.0137 c 0.801335,0.52239 1.858615,1.36898 2.832035,2.05274 0.48671,0.34187 0.95138,0.64329 1.375,0.84961 0.42362,0.20631 0.81104,0.35387 1.21094,0.22265 l 0.19922,-0.16797 c 0.23246,-0.4402 0.23495,-0.91641 0.0664,-1.3164 -0.16854,-0.4 -0.4759,-0.73397 -0.83984,-1.04493 -0.71872,-0.61406 -1.68749,-1.14406 -2.46485,-1.66015 -1.41056,-1.23468 -2.372192,-2.82069 -3.773436,-4.25391 l -0.0078,-0.01 c -0.002,-0.002 -0.0038,-0.004 -0.0059,-0.006 -0.732098,-0.84205 -1.767421,-1.93208 -2.472656,-2.85547 -0.354555,-0.46423 -0.623055,-0.89342 -0.720703,-1.17188 -0.04882,-0.13922 -0.04895,-0.23221 -0.04297,-0.25781 0.286923,-0.44314 0.667518,-0.17762 1.017573,0.041 0.559043,0.28937 1.303223,0.81756 2.113282,1.41015 1.61635,1.18243 3.47878,2.62584 5.0957,2.98828 1.30696,0.39246 2.23923,-0.063 2.92969,-0.63671 0.69362,-0.57631 1.9192,-1.40103 1.92773,-1.40821 0.33689,-0.18671 1.036,-0.95691 2.13867,-1.46291 0.35769,-0.16413 0.75076,-0.17648 1.02512,-0.1477 0.57866,0.0607 1.47525,0.24208 2.32416,0.40323 0.5737,1.90564 2.1694,3.28992 3.29133,4.88698 0.0333,0.0385 4.03159,5.012 5.95898,7.61328 1.83669,2.99596 4.02261,5.74696 6.54297,8.20117 l -0.006,-0.004 c 1.61217,1.64226 2.98064,3.65748 4.0918,5.64257 0.0299,0.49748 -0.0961,0.80682 -0.36328,1.03711 -0.27871,0.24027 -0.72948,0.39978 -1.26953,0.47071 -1.08011,0.14186 -2.48025,-0.0708 -3.36915,-0.3125 h -0.002 c -2.74179,-0.7154 -5.43033,-2.07237 -7.99609,-3.37891 -0.003,-0.002 -0.007,-0.002 -0.01,-0.004 -2.91955,-1.96222 -6.22545,-3.8644 -8.49023,-5.99023 l -0.0332,-0.0273 c -1.50402,-1.10117 -5.68816,-3.35148 -8.53711,-4.83594 l -0.0234,-0.0117 c -3.31088,-1.41636 -5.870491,-4.16725 -8.76367,-6.42969 -1.87761,-2.13711 -3.434539,-4.90601 -5.121094,-7.05078 l 0.04102,0.0449 c -0.744289,-0.99094 -1.774162,-2.01871 -2.541016,-3.05468 -0.708622,-0.95731 -1.235074,-2.5567 -1.001953,-2.75782 0.363914,-0.41601 0.872252,0.13906 1.152776,0.6609 z"
         id="path73" /></g><path
       style="display:inline;fill:#c8beb7;fill-opacity:1;stroke:#606f66;stroke-width:0.0499999;stroke-linecap:round;stroke-linejoin:bevel;stroke-dasharray:none;stroke-opacity:1"
       d="m 139.07514,152.1724 1.53376,-0.13943 0.55773,1.2549 -0.55773,1.2549 h -1.11546 l -0.97604,-0.4183 -0.8366,-0.97604 z"
       id="path15" /><path
       style="display:inline;fill:#c8beb7;fill-opacity:1;stroke:#606f66;stroke-width:0.0499999;stroke-linecap:round;stroke-linejoin:bevel;stroke-dasharray:none;stroke-opacity:1"
       d="m 62.418312,45.108841 0.521076,-0.240495 0.601242,0.120248 0.04008,0.681407 -0.480994,0.240496 h -0.76157 L 62.09765,45.429506 Z"
       id="path28" /><path
       style="display:inline;fill:#c8beb7;fill-opacity:1;stroke:#606f66;stroke-width:0.0499999;stroke-linecap:round;stroke-linejoin:bevel;stroke-dasharray:none;stroke-opacity:1"
       d="m 73.801822,39.176592 0.601242,-0.521078 0.240495,-0.561158 0.04009,-0.921903 -0.400828,-0.400828 -0.601242,-0.160332 -0.881822,-0.04008 -0.681408,0.320662 -0.480994,0.761571 0.120251,0.480994 0.440909,0.761574 0.601242,0.200414 z"
       id="path29" /></g></svg>
